<svg version="1.1" id="Layer_1" xmlns="http://www.w3.org/2000/svg" xmlns:xlink="http://www.w3.org/1999/xlink" x="0px" y="0px"
	 width="100%" viewBox="0 0 539 400" enable-background="new 0 0 539 400" xml:space="preserve">
<path fill="#EEF2FF" opacity="1.000000" stroke="none" 
	d="
M353.000000,401.000000 
	C342.312439,401.000000 331.624878,401.000000 320.775269,400.657959 
	C319.957062,399.882782 319.349335,399.185944 318.637665,399.055389 
	C303.794250,396.331726 290.815460,389.823914 279.971161,379.399139 
	C265.994507,365.963135 252.991959,351.557526 236.505280,340.836456 
	C216.499298,327.826843 196.227432,326.536224 175.145782,337.400208 
	C165.594528,342.322235 156.412521,347.997650 146.703125,352.566528 
	C134.783630,358.175415 122.232986,359.533020 110.385010,352.639191 
	C90.975822,341.345734 77.248589,324.601074 67.002312,304.861847 
	C61.404873,294.078522 57.292679,282.586792 56.294815,270.583496 
	C55.536510,261.461853 57.311871,252.129593 57.971291,243.315735 
	C58.722660,255.642014 65.311539,263.379822 75.788620,268.017792 
	C84.304497,271.787537 93.157104,272.403900 102.510956,271.187561 
	C112.449066,269.895233 122.221550,268.620392 131.559509,264.027771 
	C135.194946,264.292816 138.574615,264.955933 141.760803,264.435272 
	C144.955811,263.913147 147.957855,262.210052 151.325089,261.223816 
	C155.809326,270.410553 158.119217,271.388916 167.510132,267.930237 
	C171.710617,266.383179 175.844269,264.654724 180.314972,263.174011 
	C184.060120,267.662720 188.323578,267.747925 193.060104,265.873016 
	C198.115112,263.872070 203.265717,262.106842 208.284210,260.021210 
	C212.305923,258.349854 216.192383,256.353088 220.422958,254.757462 
	C222.941650,258.119598 225.923920,259.467255 229.341446,257.461121 
	C232.928116,255.355713 232.341751,252.025375 231.059174,248.632950 
	C224.999115,232.604095 218.994583,216.554092 213.027664,200.490295 
	C211.826645,197.257019 210.126282,194.562424 206.259689,195.213470 
	C202.043732,195.923309 200.669586,198.966248 200.748337,203.001404 
	C191.089798,206.398804 181.878510,209.953613 172.535736,213.120499 
	C167.601562,214.793030 165.531799,218.183090 164.616043,223.033997 
	C161.930328,223.989655 159.619843,224.906998 157.293045,225.780914 
	C144.133102,230.723663 144.131775,230.720123 143.525024,243.782608 
	C140.399643,244.950516 137.660492,246.081726 134.850677,246.995712 
	C130.441788,248.429825 127.987160,251.311661 127.336853,255.996399 
	C113.641899,259.343475 100.392113,262.697876 86.416161,260.053955 
	C70.648514,257.071075 63.167198,243.143494 70.276245,228.617447 
	C74.953644,219.060013 79.394142,209.505310 81.392700,198.822174 
	C83.905525,194.287018 86.139008,189.853897 88.213295,185.347473 
	C95.734680,169.007141 94.583496,153.542618 84.300812,138.497452 
	C79.643021,131.682388 74.906563,124.734283 74.883949,115.627823 
	C74.851204,102.434486 79.412224,90.833878 86.485542,80.240486 
	C92.244423,71.615654 99.934891,64.666687 109.925896,61.019993 
	C126.238487,55.065922 141.880753,57.107101 156.594772,65.999374 
	C171.967545,75.289772 188.493454,78.983803 206.395584,78.134346 
	C216.082596,77.674698 225.344513,75.953094 234.565018,73.142891 
	C264.323425,64.073174 288.457458,46.006210 310.962341,25.437477 
	C322.515900,14.877905 335.093475,6.484105 350.547272,2.923410 
	C351.147369,2.785144 351.520905,1.663453 352.000000,1.000000 
	C359.354248,1.000000 366.708496,1.000000 374.226501,1.335618 
	C377.247620,2.593147 380.142059,3.414630 382.956268,4.453322 
	C400.641449,10.980700 414.406433,22.815283 425.677307,37.456455 
	C436.005554,50.873077 444.328979,65.576736 450.184204,81.578682 
	C455.714233,96.691734 460.821014,111.931007 459.922882,128.310852 
	C459.379791,138.216248 458.074554,148.079865 456.708282,157.965408 
	C443.978241,154.265244 431.488464,152.743164 418.335999,155.065765 
	C415.415070,154.941528 412.731598,154.387085 410.338989,154.988968 
	C406.199860,156.030182 402.241119,157.788528 397.873840,159.070831 
	C396.863678,157.603912 396.035370,156.368057 395.533844,155.011414 
	C392.451111,146.672699 389.108948,145.013687 380.701447,147.984192 
	C376.026672,149.635864 371.429932,151.508377 366.549072,153.035110 
	C364.970551,149.553635 363.308746,146.517227 359.097290,147.475281 
	C355.254730,148.349457 353.776642,151.148453 353.820312,155.032043 
	C342.704376,159.064850 332.015930,163.183395 321.222168,167.004395 
	C316.718903,168.598541 313.825989,171.251541 312.625641,176.045166 
	C305.556213,178.543320 298.784698,180.823212 292.209625,183.572861 
	C290.510803,184.283295 288.760132,186.292618 288.302673,188.037979 
	C288.008087,189.162048 289.774902,191.762573 291.072876,192.141098 
	C292.870148,192.665268 295.178558,191.982849 297.121735,191.360245 
	C303.423737,189.341064 309.659027,187.113556 316.082947,185.294525 
	C318.866455,193.055725 321.487030,200.488678 323.710388,207.954193 
	C316.952637,210.260925 310.633820,212.663025 304.214142,214.755707 
	C300.968506,215.813721 299.166046,217.736099 300.269592,220.956680 
	C301.529083,224.632141 304.471100,224.422409 307.645935,223.193680 
	C314.100555,220.695557 320.622192,218.370621 327.375977,216.194809 
	C331.580841,221.732910 335.391296,222.388428 343.008820,219.475143 
	C353.367737,215.513397 363.795502,211.731674 374.468628,208.073288 
	C377.265015,208.797409 380.248199,210.365341 382.163849,209.518494 
	C383.733337,208.824677 384.166443,205.292847 384.820251,202.940430 
	C385.048615,202.118713 384.431976,201.062164 384.560333,200.035156 
	C387.901886,198.919952 390.901062,197.927734 393.864014,196.837189 
	C407.189331,191.932602 407.827332,190.683853 404.439697,177.077576 
	C407.454254,176.031021 410.286072,175.384171 412.699127,174.004730 
	C416.306366,171.942581 419.618927,169.364914 423.481903,167.002258 
	C429.943512,166.665573 435.999664,165.894043 442.009399,166.162338 
	C445.726227,166.328278 449.372406,168.075851 453.026855,169.505386 
	C446.166901,185.268585 439.933319,200.945496 432.335205,215.930557 
	C423.616302,233.126236 413.676819,249.819336 409.268372,268.734222 
	C405.760529,283.784943 407.188721,298.498505 417.605011,311.153442 
	C426.063232,321.429443 428.989258,333.069550 424.904510,345.854614 
	C421.240051,357.324158 414.120117,366.509064 405.095886,374.525543 
	C390.592163,387.409668 373.873108,395.378265 354.947784,399.068756 
	C354.201355,399.214325 353.644928,400.334137 353.000000,401.000000 
M221.871735,162.611099 
	C228.314575,167.844849 234.744659,173.094406 241.207245,178.303635 
	C243.429260,180.094681 246.021133,182.372131 248.515457,179.345032 
	C250.813446,176.556198 248.710236,174.115616 246.520432,172.084900 
	C235.559006,161.919785 224.602631,151.749252 213.647247,141.577621 
	C211.105209,139.217438 208.578033,137.697357 205.579315,141.021011 
	C202.633957,144.285492 202.807495,147.145447 206.250763,149.907410 
	C211.300171,153.957718 216.295212,158.075760 221.871735,162.611099 
M328.206757,283.298737 
	C320.179504,272.303619 312.167999,261.296967 304.111755,250.323151 
	C302.503418,248.132355 300.369659,245.542496 297.733917,248.012970 
	C296.566742,249.106918 296.443054,252.848160 297.408020,254.441422 
	C305.487823,267.782013 313.898010,280.923523 322.292419,294.071564 
	C323.988678,296.728394 326.243835,298.054169 329.396790,295.887238 
	C332.445770,293.791779 333.729248,291.339539 331.536224,287.928894 
	C330.639526,286.534302 329.616089,285.221161 328.206757,283.298737 
M283.919891,139.469574 
	C284.677643,133.545105 285.394379,127.615013 286.207672,121.698181 
	C286.744568,117.792053 284.859894,116.315269 281.204559,115.989456 
	C276.563080,115.575752 275.525696,118.277962 275.331757,122.060883 
	C274.736572,133.668610 273.945038,145.269745 273.625854,156.884338 
	C273.578278,158.616547 275.315796,161.452759 276.829956,161.952423 
	C279.939697,162.978577 280.993866,160.337128 281.372986,157.593201 
	C282.167542,151.842545 283.023804,146.100418 283.919891,139.469574 
M257.164124,295.694366 
	C260.596832,285.119232 264.031891,274.544830 267.460602,263.968414 
	C268.311462,261.343903 269.160156,258.479462 265.749847,257.190674 
	C262.348724,255.905334 261.093109,258.533813 260.023102,261.133759 
	C255.664856,271.723541 251.329376,282.323273 246.871506,292.871155 
	C245.444214,296.248291 245.219803,298.960815 249.268829,300.543030 
	C253.460602,302.181030 256.010376,300.865417 257.164124,295.694366 
M280.966034,280.388733 
	C280.941620,281.382202 280.898285,282.375671 280.896484,283.369171 
	C280.892151,285.785889 280.143188,288.693787 284.016235,288.837189 
	C287.884766,288.980469 288.088074,286.379303 287.935852,283.468750 
	C287.563965,276.358826 287.378418,269.235809 286.812317,262.142487 
	C286.711945,260.885010 285.137238,259.745178 284.243347,258.551025 
	C283.354279,259.716248 281.789429,260.827484 281.691345,262.055878 
	C281.230530,267.825928 281.172668,273.628174 280.966034,280.388733 
M252.023682,152.504532 
	C253.188354,156.140350 254.180664,159.846939 255.625946,163.367569 
	C256.043243,164.384033 257.762970,164.865799 258.885620,165.592712 
	C259.448425,164.371490 260.682648,163.013718 260.466522,161.950897 
	C258.910736,154.300323 257.211334,146.668396 255.152817,139.141235 
	C254.818771,137.919769 252.479187,137.246765 251.066620,136.320251 
	C250.222061,137.970627 248.481720,139.759506 248.711243,141.243790 
	C249.263412,144.814667 250.738602,148.242813 252.023682,152.504532 
z"/>
<path fill="#000000" opacity="1.000000" stroke="none" 
	d="
M351.531342,1.000000 
	C351.520905,1.663453 351.147369,2.785144 350.547272,2.923410 
	C335.093475,6.484105 322.515900,14.877905 310.962341,25.437477 
	C288.457458,46.006210 264.323425,64.073174 234.565018,73.142891 
	C225.344513,75.953094 216.082596,77.674698 206.395584,78.134346 
	C188.493454,78.983803 171.967545,75.289772 156.594772,65.999374 
	C141.880753,57.107101 126.238487,55.065922 109.925896,61.019993 
	C99.934891,64.666687 92.244423,71.615654 86.485542,80.240486 
	C79.412224,90.833878 74.851204,102.434486 74.883949,115.627823 
	C74.906563,124.734283 79.643021,131.682388 84.300812,138.497452 
	C94.583496,153.542618 95.734680,169.007141 88.213295,185.347473 
	C86.139008,189.853897 83.905525,194.287018 81.374184,198.374786 
	C81.705200,187.746384 78.281357,179.451126 69.396530,173.835831 
	C53.573528,163.835571 36.471973,162.353867 18.709852,166.830780 
	C12.671839,168.352631 6.895767,170.913773 1.000000,173.000000 
	C1.000000,115.714645 1.000000,58.429291 1.000000,1.000000 
	C117.687523,1.000000 234.375107,1.000000 351.531342,1.000000 
z"/>
<path fill="#000000" opacity="1.000000" stroke="none" 
	d="
M57.959900,242.891052 
	C57.311871,252.129593 55.536510,261.461853 56.294815,270.583496 
	C57.292679,282.586792 61.404873,294.078522 67.002312,304.861847 
	C77.248589,324.601074 90.975822,341.345734 110.385010,352.639191 
	C122.232986,359.533020 134.783630,358.175415 146.703125,352.566528 
	C156.412521,347.997650 165.594528,342.322235 175.145782,337.400208 
	C196.227432,326.536224 216.499298,327.826843 236.505280,340.836456 
	C252.991959,351.557526 265.994507,365.963135 279.971161,379.399139 
	C290.815460,389.823914 303.794250,396.331726 318.637665,399.055389 
	C319.349335,399.185944 319.957062,399.882782 320.306580,400.657959 
	C213.752686,401.000000 107.505371,401.000000 1.000000,401.000000 
	C1.000000,327.312653 1.000000,253.624985 1.329225,179.164154 
	C5.294613,181.218399 9.390761,181.274216 13.741895,180.707291 
	C24.061304,179.362701 34.414600,177.275406 44.739975,177.354111 
	C50.969437,177.401611 57.713581,179.995529 63.249401,183.156403 
	C70.099686,187.067810 72.130653,199.121399 67.689484,208.829910 
	C62.733089,219.664764 57.005085,230.341919 57.959900,242.891052 
z"/>
<path fill="#000000" opacity="1.000000" stroke="none" 
	d="
M457.111725,157.962250 
	C458.074554,148.079865 459.379791,138.216248 459.922882,128.310852 
	C460.821014,111.931007 455.714233,96.691734 450.184204,81.578682 
	C444.328979,65.576736 436.005554,50.873077 425.677307,37.456455 
	C414.406433,22.815283 400.641449,10.980700 382.956268,4.453322 
	C380.142059,3.414630 377.247620,2.593147 374.695129,1.335618 
	C429.940399,1.000000 484.880768,1.000000 540.000000,1.000000 
	C540.000000,80.354141 540.000000,159.708405 539.673584,239.859680 
	C537.812561,240.675476 536.177612,240.357407 534.762939,240.778687 
	C531.083313,241.874435 527.512085,243.329102 523.876709,244.579666 
	C510.148529,249.302170 496.149261,251.933655 481.673218,248.951553 
	C468.563629,246.250946 461.704376,234.167206 466.259766,221.559219 
	C469.249908,213.283234 473.532745,205.455139 476.253479,197.106049 
	C479.419525,187.390518 479.908325,177.092163 472.754822,168.940033 
	C468.672272,164.287582 462.398743,161.557770 457.111725,157.962250 
z"/>
<path fill="#000000" opacity="1.000000" stroke="none" 
	d="
M353.468658,401.000000 
	C353.644928,400.334137 354.201355,399.214325 354.947784,399.068756 
	C373.873108,395.378265 390.592163,387.409668 405.095886,374.525543 
	C414.120117,366.509064 421.240051,357.324158 424.904510,345.854614 
	C428.989258,333.069550 426.063232,321.429443 417.605011,311.153442 
	C407.188721,298.498505 405.760529,283.784943 409.268372,268.734222 
	C413.676819,249.819336 423.616302,233.126236 432.335205,215.930557 
	C439.933319,200.945496 446.166901,185.268585 453.402954,169.453918 
	C464.287628,171.381500 468.697723,183.673645 466.517700,190.899384 
	C464.861420,196.389160 462.447662,201.646835 460.468964,207.043701 
	C456.814728,217.010529 453.186920,226.729080 454.777405,237.967239 
	C456.610229,250.917511 471.467224,260.920074 482.220551,261.853363 
	C493.008942,262.789673 503.896118,262.279266 514.382080,258.968903 
	C523.301758,256.153015 532.346191,253.449051 537.800659,244.803055 
	C538.130127,244.280762 539.248657,244.256195 540.000000,244.000015 
	C540.000000,296.266693 540.000000,348.533417 540.000000,401.000000 
	C477.979248,401.000000 415.958282,401.000000 353.468658,401.000000 
z"/>
<path fill="#E0E7FF" opacity="1.000000" stroke="none" 
	d="
M57.971287,243.315735 
	C57.005085,230.341919 62.733089,219.664764 67.689484,208.829910 
	C72.130653,199.121399 70.099686,187.067810 63.249401,183.156403 
	C57.713581,179.995529 50.969437,177.401611 44.739975,177.354111 
	C34.414600,177.275406 24.061304,179.362701 13.741895,180.707291 
	C9.390761,181.274216 5.294613,181.218399 1.329225,178.695496 
	C1.000000,177.285645 1.000000,175.571289 1.000000,173.428467 
	C6.895767,170.913773 12.671839,168.352631 18.709852,166.830780 
	C36.471973,162.353867 53.573528,163.835571 69.396530,173.835831 
	C78.281357,179.451126 81.705200,187.746384 81.021797,198.443161 
	C79.394142,209.505310 74.953644,219.060013 70.276245,228.617447 
	C63.167198,243.143494 70.648514,257.071075 86.416161,260.053955 
	C100.392113,262.697876 113.641899,259.343475 127.432877,256.358032 
	C129.014160,259.105347 130.116531,261.506073 131.218887,263.906830 
	C122.221550,268.620392 112.449066,269.895233 102.510956,271.187561 
	C93.157104,272.403900 84.304497,271.787537 75.788620,268.017792 
	C65.311539,263.379822 58.722660,255.642014 57.971287,243.315735 
z"/>
<path fill="#E0E7FF" opacity="1.000000" stroke="none" 
	d="
M540.000000,243.600021 
	C539.248657,244.256195 538.130127,244.280762 537.800659,244.803055 
	C532.346191,253.449051 523.301758,256.153015 514.382080,258.968903 
	C503.896118,262.279266 493.008942,262.789673 482.220551,261.853363 
	C471.467224,260.920074 456.610229,250.917511 454.777405,237.967239 
	C453.186920,226.729080 456.814728,217.010529 460.468964,207.043701 
	C462.447662,201.646835 464.861420,196.389160 466.517700,190.899384 
	C468.697723,183.673645 464.287628,171.381500 453.426392,169.061935 
	C449.372406,168.075851 445.726227,166.328278 442.009399,166.162338 
	C435.999664,165.894043 429.943512,166.665573 423.470428,166.577515 
	C423.625885,161.689072 421.958038,158.110474 418.704376,155.155975 
	C431.488464,152.743164 443.978241,154.265244 456.708282,157.965408 
	C462.398743,161.557770 468.672272,164.287582 472.754822,168.940033 
	C479.908325,177.092163 479.419525,187.390518 476.253479,197.106049 
	C473.532745,205.455139 469.249908,213.283234 466.259766,221.559219 
	C461.704376,234.167206 468.563629,246.250946 481.673218,248.951553 
	C496.149261,251.933655 510.148529,249.302170 523.876709,244.579666 
	C527.512085,243.329102 531.083313,241.874435 534.762939,240.778687 
	C536.177612,240.357407 537.812561,240.675476 539.673584,240.328339 
	C540.000000,241.066666 540.000000,242.133347 540.000000,243.600021 
z"/>
<path fill="#C7D2FE" opacity="1.000000" stroke="none" 
	d="
M312.996704,176.001831 
	C313.825989,171.251541 316.718903,168.598541 321.222168,167.004395 
	C332.015930,163.183395 342.704376,159.064850 354.057861,155.281189 
	C361.184875,172.954910 367.689301,190.413849 374.193726,207.872772 
	C363.795502,211.731674 353.367737,215.513397 343.008820,219.475143 
	C335.391296,222.388428 331.580841,221.732910 327.343750,215.819489 
	C326.070374,212.789658 325.088989,210.355652 324.107605,207.921631 
	C321.487030,200.488678 318.866455,193.055725 316.057983,184.935394 
	C314.912292,181.499298 313.954498,178.750565 312.996704,176.001831 
z"/>
<path fill="#C7D2FE" opacity="1.000000" stroke="none" 
	d="
M220.138870,254.500732 
	C216.192383,256.353088 212.305923,258.349854 208.284210,260.021210 
	C203.265717,262.106842 198.115112,263.872070 193.060104,265.873016 
	C188.323578,267.747925 184.060120,267.662720 180.271683,262.799011 
	C174.942368,249.164276 169.963058,236.069962 164.983749,222.975647 
	C165.531799,218.183090 167.601562,214.793030 172.535736,213.120499 
	C181.878510,209.953613 191.089798,206.398804 201.000061,203.240448 
	C204.233200,210.318039 206.908905,217.128983 209.390244,224.010025 
	C213.045807,234.147385 216.562836,244.334702 220.138870,254.500732 
z"/>
<path fill="#A5B4FC" opacity="1.000000" stroke="none" 
	d="
M404.069611,177.149460 
	C407.827332,190.683853 407.189331,191.932602 393.864014,196.837189 
	C390.901062,197.927734 387.901886,198.919952 384.372894,199.708191 
	C378.150269,184.066437 372.474152,168.673904 366.798035,153.281357 
	C371.429932,151.508377 376.026672,149.635864 380.701447,147.984192 
	C389.108948,145.013687 392.451111,146.672699 395.533844,155.011414 
	C396.035370,156.368057 396.863678,157.603912 397.793396,159.449738 
	C400.053741,165.719086 402.061676,171.434265 404.069611,177.149460 
z"/>
<path fill="#A6B5FC" opacity="1.000000" stroke="none" 
	d="
M164.616043,223.033997 
	C169.963058,236.069962 174.942368,249.164276 179.964951,262.633606 
	C175.844269,264.654724 171.710617,266.383179 167.510132,267.930237 
	C158.119217,271.388916 155.809326,270.410553 151.351898,260.826294 
	C148.691910,254.702484 146.285736,249.175491 143.879547,243.648499 
	C144.131775,230.720123 144.133102,230.723663 157.293045,225.780914 
	C159.619843,224.906998 161.930328,223.989655 164.616043,223.033997 
z"/>
<path fill="#6669F1" opacity="1.000000" stroke="none" 
	d="
M366.549072,153.035126 
	C372.474152,168.673904 378.150269,184.066437 384.013824,199.785919 
	C384.431976,201.062164 385.048615,202.118713 384.820251,202.940430 
	C384.166443,205.292847 383.733337,208.824677 382.163849,209.518494 
	C380.248199,210.365341 377.265015,208.797409 374.468628,208.073303 
	C367.689301,190.413849 361.184875,172.954910 354.442902,155.246841 
	C353.776642,151.148453 355.254730,148.349457 359.097290,147.475281 
	C363.308746,146.517227 364.970551,149.553635 366.549072,153.035126 
z"/>
<path fill="#6669F1" opacity="1.000000" stroke="none" 
	d="
M220.422958,254.757462 
	C216.562836,244.334702 213.045807,234.147385 209.390244,224.010025 
	C206.908905,217.128983 204.233200,210.318039 201.392700,203.236710 
	C200.669586,198.966248 202.043732,195.923309 206.259689,195.213470 
	C210.126282,194.562424 211.826645,197.257019 213.027664,200.490295 
	C218.994583,216.554092 224.999115,232.604095 231.059174,248.632950 
	C232.341751,252.025375 232.928116,255.355713 229.341446,257.461121 
	C225.923920,259.467255 222.941650,258.119598 220.422958,254.757462 
z"/>
<path fill="#493FCC" opacity="1.000000" stroke="none" 
	d="
M221.592575,162.388016 
	C216.295212,158.075760 211.300171,153.957718 206.250763,149.907410 
	C202.807495,147.145447 202.633957,144.285492 205.579315,141.021011 
	C208.578033,137.697357 211.105209,139.217438 213.647247,141.577621 
	C224.602631,151.749252 235.559006,161.919785 246.520432,172.084900 
	C248.710236,174.115616 250.813446,176.556198 248.515457,179.345032 
	C246.021133,182.372131 243.429260,180.094681 241.207245,178.303635 
	C234.744659,173.094406 228.314575,167.844849 221.592575,162.388016 
z"/>
<path fill="#493ECC" opacity="1.000000" stroke="none" 
	d="
M328.428528,283.584839 
	C329.616089,285.221161 330.639526,286.534302 331.536224,287.928894 
	C333.729248,291.339539 332.445770,293.791779 329.396790,295.887238 
	C326.243835,298.054169 323.988678,296.728394 322.292419,294.071564 
	C313.898010,280.923523 305.487823,267.782013 297.408020,254.441422 
	C296.443054,252.848160 296.566742,249.106918 297.733917,248.012970 
	C300.369659,245.542496 302.503418,248.132355 304.111755,250.323151 
	C312.167999,261.296967 320.179504,272.303619 328.428528,283.584839 
z"/>
<path fill="#493ECC" opacity="1.000000" stroke="none" 
	d="
M283.887299,139.912170 
	C283.023804,146.100418 282.167542,151.842545 281.372986,157.593201 
	C280.993866,160.337128 279.939697,162.978577 276.829956,161.952423 
	C275.315796,161.452759 273.578278,158.616547 273.625854,156.884338 
	C273.945038,145.269745 274.736572,133.668610 275.331757,122.060883 
	C275.525696,118.277962 276.563080,115.575752 281.204559,115.989456 
	C284.859894,116.315269 286.744568,117.792053 286.207672,121.698181 
	C285.394379,127.615013 284.677643,133.545105 283.887299,139.912170 
z"/>
<path fill="#483ECC" opacity="1.000000" stroke="none" 
	d="
M257.061584,296.078247 
	C256.010376,300.865417 253.460602,302.181030 249.268829,300.543030 
	C245.219803,298.960815 245.444214,296.248291 246.871506,292.871155 
	C251.329376,282.323273 255.664856,271.723541 260.023102,261.133759 
	C261.093109,258.533813 262.348724,255.905334 265.749847,257.190674 
	C269.160156,258.479462 268.311462,261.343903 267.460602,263.968414 
	C264.031891,274.544830 260.596832,285.119232 257.061584,296.078247 
z"/>
<path fill="#524AE6" opacity="1.000000" stroke="none" 
	d="
M404.439697,177.077576 
	C402.061676,171.434265 400.053741,165.719086 398.126282,159.624985 
	C402.241119,157.788528 406.199860,156.030182 410.338989,154.988968 
	C412.731598,154.387085 415.415070,154.941528 418.335999,155.065765 
	C421.958038,158.110474 423.625885,161.689072 423.045349,166.581787 
	C419.618927,169.364914 416.306366,171.942581 412.699127,174.004730 
	C410.286072,175.384171 407.454254,176.031021 404.439697,177.077576 
z"/>
<path fill="#534AE6" opacity="1.000000" stroke="none" 
	d="
M143.525024,243.782608 
	C146.285736,249.175491 148.691910,254.702484 151.071274,260.627014 
	C147.957855,262.210052 144.955811,263.913147 141.760803,264.435272 
	C138.574615,264.955933 135.194946,264.292816 131.559509,264.027771 
	C130.116531,261.506073 129.014160,259.105347 127.815781,256.342987 
	C127.987160,251.311661 130.441788,248.429825 134.850677,246.995712 
	C137.660492,246.081726 140.399643,244.950516 143.525024,243.782608 
z"/>
<path fill="#FEFFFF" opacity="1.000000" stroke="none" 
	d="
M312.625641,176.045166 
	C313.954498,178.750565 314.912292,181.499298 315.895081,184.607147 
	C309.659027,187.113556 303.423737,189.341064 297.121735,191.360245 
	C295.178558,191.982849 292.870148,192.665268 291.072876,192.141098 
	C289.774902,191.762573 288.008087,189.162048 288.302673,188.037979 
	C288.760132,186.292618 290.510803,184.283295 292.209625,183.572861 
	C298.784698,180.823212 305.556213,178.543320 312.625641,176.045166 
z"/>
<path fill="#FEFFFF" opacity="1.000000" stroke="none" 
	d="
M323.710388,207.954193 
	C325.088989,210.355652 326.070374,212.789658 327.083984,215.598999 
	C320.622192,218.370621 314.100555,220.695557 307.645935,223.193680 
	C304.471100,224.422409 301.529083,224.632141 300.269592,220.956680 
	C299.166046,217.736099 300.968506,215.813721 304.214142,214.755707 
	C310.633820,212.663025 316.952637,210.260925 323.710388,207.954193 
z"/>
<path fill="#4D43CD" opacity="1.000000" stroke="none" 
	d="
M280.968506,279.903839 
	C281.172668,273.628174 281.230530,267.825928 281.691345,262.055878 
	C281.789429,260.827484 283.354279,259.716248 284.243347,258.551025 
	C285.137238,259.745178 286.711945,260.885010 286.812317,262.142487 
	C287.378418,269.235809 287.563965,276.358826 287.935852,283.468750 
	C288.088074,286.379303 287.884766,288.980469 284.016235,288.837189 
	C280.143188,288.693787 280.892151,285.785889 280.896484,283.369171 
	C280.898285,282.375671 280.941620,281.382202 280.968506,279.903839 
z"/>
<path fill="#4B40CC" opacity="1.000000" stroke="none" 
	d="
M251.932556,152.116547 
	C250.738602,148.242813 249.263412,144.814667 248.711243,141.243790 
	C248.481720,139.759506 250.222061,137.970627 251.066620,136.320251 
	C252.479187,137.246765 254.818771,137.919769 255.152817,139.141235 
	C257.211334,146.668396 258.910736,154.300323 260.466522,161.950897 
	C260.682648,163.013718 259.448425,164.371490 258.885620,165.592712 
	C257.762970,164.865799 256.043243,164.384033 255.625946,163.367569 
	C254.180664,159.846939 253.188354,156.140350 251.932556,152.116547 
z"/>
</svg>